<?xml version="1.0" encoding="UTF-8" standalone="no"?>
<svg
   version="1.1"
   viewBox="0 0 48 48"
   enable-background="new 0 0 48 48"
   id="svg92"
   sodipodi:docname="icon.svg"
   inkscape:export-filename="..\..\..\Users\micha\source\repos\daily-game-tracker\src\icons\icon.png"
   inkscape:export-xdpi="40.421051"
   inkscape:export-ydpi="40.421051"
   inkscape:version="1.2.2 (732a01da63, 2022-12-09)"
   xmlns:inkscape="http://www.inkscape.org/namespaces/inkscape"
   xmlns:sodipodi="http://sodipodi.sourceforge.net/DTD/sodipodi-0.dtd"
   xmlns="http://www.w3.org/2000/svg"
   xmlns:svg="http://www.w3.org/2000/svg">
  <defs
     id="defs96" />
  <sodipodi:namedview
     id="namedview94"
     pagecolor="#ffffff"
     bordercolor="#000000"
     borderopacity="0.25"
     inkscape:showpageshadow="2"
     inkscape:pageopacity="0.0"
     inkscape:pagecheckerboard="0"
     inkscape:deskcolor="#d1d1d1"
     showgrid="false"
     inkscape:zoom="17.4375"
     inkscape:cx="22.996416"
     inkscape:cy="18.982079"
     inkscape:window-width="1920"
     inkscape:window-height="1017"
     inkscape:window-x="1912"
     inkscape:window-y="-8"
     inkscape:window-maximized="1"
     inkscape:current-layer="g90" />
  <path
     fill="#cfd8dc"
     d="M 5,37.60256 V 14.21795 H 43 V 37.60256 C 43,39.74615 41.2,41.5 39,41.5 H 9 c -2.2,0 -4,-1.75385 -4,-3.89744 z"
     id="path50"
     style="stroke-width:0.987096" />
  <path
     fill="#f44336"
     d="m 43,10.32051 v 5.84616 H 5 V 10.32051 C 5,8.176923 6.8,6.423077 9,6.423077 h 30 c 2.2,0 4,1.753846 4,3.897433 z"
     id="path52"
     style="stroke-width:0.987096" />
  <g
     fill="#b71c1c"
     id="g58"
     transform="matrix(1,0,0,0.974359,0,0.57692301)">
    <circle
       cx="33"
       cy="10"
       r="3"
       id="circle54" />
    <circle
       cx="15"
       cy="10"
       r="3"
       id="circle56" />
  </g>
  <g
     fill="#b0bec5"
     id="g64"
     transform="matrix(1,0,0,0.974359,0,0.57692301)">
    <path
       d="m 33,3 c -1.1,0 -2,0.9 -2,2 v 5 c 0,1.1 0.9,2 2,2 1.1,0 2,-0.9 2,-2 V 5 C 35,3.9 34.1,3 33,3 Z"
       id="path60" />
    <path
       d="m 15,3 c -1.1,0 -2,0.9 -2,2 v 5 c 0,1.1 0.9,2 2,2 1.1,0 2,-0.9 2,-2 V 5 C 17,3.9 16.1,3 15,3 Z"
       id="path62" />
  </g>
  <g
     fill="#90a4ae"
     id="g90"
     transform="matrix(1,0,0,0.974359,0,0.57692301)">
    <rect
       x="13"
       y="20"
       width="4"
       height="4"
       id="rect66"
       inkscape:highlight-color="#28a745"
       style="fill:#28a745" />
    <rect
       x="19"
       y="20"
       width="4"
       height="4"
       id="rect68"
       style="fill:#28a745" />
    <rect
       x="25"
       y="20"
       width="4"
       height="4"
       id="rect70"
       style="fill:#28a745" />
    <rect
       x="31"
       y="20"
       width="4"
       height="4"
       id="rect72" />
    <rect
       x="13"
       y="26"
       width="4"
       height="4"
       id="rect74"
       style="fill:#28a745" />
    <rect
       x="19"
       y="26"
       width="4"
       height="4"
       id="rect76" />
    <rect
       x="25"
       y="26"
       width="4"
       height="4"
       id="rect78" />
    <rect
       x="31"
       y="26"
       width="4"
       height="4"
       id="rect80"
       style="fill:#28a745" />
    <rect
       x="13"
       y="32"
       width="4"
       height="4"
       id="rect82" />
    <rect
       x="19"
       y="32"
       width="4"
       height="4"
       id="rect84" />
    <rect
       x="25"
       y="32"
       width="4"
       height="4"
       id="rect86" />
    <rect
       x="31"
       y="32"
       width="4"
       height="4"
       id="rect88" />
  </g>
</svg>
